<?xml version="1.0" standalone="no"?>
<!DOCTYPE svg PUBLIC "-//W3C//DTD SVG 20010904//EN"
 "http://www.w3.org/TR/2001/REC-SVG-20010904/DTD/svg10.dtd">
<svg version="1.0" xmlns="http://www.w3.org/2000/svg"
 width="1024.000000pt" height="1024.000000pt" viewBox="0 0 1024.000000 1024.000000"
 preserveAspectRatio="xMidYMid meet">
<metadata>
Created by potrace 1.11, written by Peter Selinger 2001-2013
</metadata>
<g transform="translate(0.000000,1024.000000) scale(0.100000,-0.100000)"
fill="#000000" stroke="none">
<path d="M0 5120 l0 -5120 5120 0 5120 0 0 5120 0 5120 -5120 0 -5120 0 0
-5120z m5162 4959 c11 -6 34 -13 50 -16 16 -2 50 -20 75 -39 26 -20 56 -34 73
-34 16 0 41 -10 57 -22 43 -35 89 -58 113 -58 12 0 41 -14 66 -30 24 -17 62
-37 84 -45 22 -8 55 -26 74 -40 18 -14 45 -25 60 -25 32 0 58 -13 106 -52 19
-15 46 -28 60 -28 14 0 49 -16 77 -35 29 -19 64 -35 78 -35 28 0 85 -26 85
-38 0 -12 67 -42 95 -42 13 0 27 -5 30 -10 13 -21 88 -62 119 -65 17 -1 55
-19 85 -39 29 -20 63 -36 76 -36 12 0 33 -8 46 -19 34 -26 105 -61 125 -61 10
0 38 -13 64 -30 25 -16 65 -36 89 -45 23 -8 56 -26 73 -40 18 -15 42 -25 62
-25 21 0 49 -13 85 -40 31 -23 64 -40 80 -40 14 0 48 -16 75 -35 32 -23 61
-35 82 -35 19 0 44 -9 61 -24 40 -33 88 -56 117 -56 14 0 28 -5 31 -10 13 -21
85 -60 111 -60 15 0 41 -11 58 -24 43 -32 91 -56 115 -56 11 0 26 -7 34 -15
24 -23 104 -65 126 -65 10 0 43 -16 72 -35 30 -19 66 -35 81 -35 17 0 40 -13
64 -35 25 -24 46 -35 67 -35 18 0 53 -16 89 -40 37 -24 72 -40 90 -40 20 0 44
-12 71 -35 25 -22 51 -35 68 -35 31 0 79 -19 79 -31 0 -11 83 -49 108 -49 12
0 42 -16 68 -35 27 -21 57 -35 74 -35 15 0 50 -15 78 -34 27 -19 66 -38 87
-42 20 -3 44 -14 53 -24 17 -18 102 -60 121 -60 5 0 37 -16 70 -35 32 -19 70
-35 84 -35 13 0 32 -9 41 -19 10 -11 32 -25 49 -32 18 -7 73 -31 122 -54 50
-23 101 -46 115 -50 14 -4 40 -21 58 -36 22 -20 44 -29 66 -29 22 0 46 -10 71
-30 37 -30 54 -37 105 -42 15 -2 26 -10 28 -21 5 -27 -44 -74 -84 -82 -19 -3
-49 -18 -67 -34 -17 -15 -53 -35 -79 -45 -26 -9 -63 -30 -84 -47 -20 -16 -47
-29 -59 -29 -13 0 -42 -16 -65 -35 -23 -19 -52 -35 -65 -35 -12 0 -28 -7 -36
-16 -7 -8 -26 -22 -42 -30 -18 -10 -36 -33 -49 -62 -22 -50 -22 -42 -33 -526
-3 -148 -10 -290 -15 -315 -5 -25 -9 -75 -8 -111 1 -61 -30 -887 -38 -995 -2
-27 -10 -239 -19 -470 -8 -231 -19 -508 -25 -615 -5 -107 -14 -330 -20 -495
-6 -165 -15 -383 -20 -485 -5 -102 -14 -331 -20 -510 -5 -179 -14 -395 -20
-480 -6 -85 -15 -317 -20 -515 -6 -198 -13 -405 -16 -460 -9 -175 -12 -270
-19 -708 -4 -235 -11 -427 -16 -427 -20 0 -31 88 -24 200 10 158 5 1084 -7
1425 -6 154 -12 402 -13 550 -3 477 -25 1398 -35 1460 -6 34 -9 175 -9 315 2
367 -21 1386 -32 1443 -5 26 -9 200 -9 385 -1 477 -16 1030 -30 1070 -14 37
-31 40 -67 12 -14 -11 -36 -20 -49 -20 -12 0 -35 -11 -51 -24 -15 -13 -50 -33
-77 -44 -26 -12 -64 -35 -82 -52 -21 -18 -46 -30 -62 -30 -18 0 -39 -11 -57
-30 -16 -16 -43 -33 -62 -36 -18 -3 -52 -21 -76 -39 -23 -17 -58 -37 -78 -44
-20 -6 -49 -25 -64 -41 -20 -21 -38 -30 -61 -30 -22 0 -45 -11 -74 -35 -23
-19 -50 -35 -60 -35 -10 0 -42 -18 -71 -40 -33 -25 -64 -40 -82 -40 -20 0 -40
-12 -68 -40 -22 -22 -45 -37 -53 -34 -17 7 -65 -17 -90 -44 -10 -12 -32 -24
-50 -28 -17 -3 -50 -21 -72 -40 -23 -18 -61 -38 -85 -43 -29 -7 -52 -20 -69
-41 -17 -20 -34 -30 -52 -30 -18 0 -42 -13 -67 -35 -21 -19 -46 -35 -55 -35
-23 0 -54 -17 -94 -51 -21 -19 -44 -29 -64 -29 -22 0 -43 -11 -75 -40 -24 -23
-48 -38 -54 -34 -6 3 -29 -7 -52 -24 -23 -16 -59 -37 -80 -46 -21 -9 -56 -29
-77 -46 -21 -16 -49 -30 -64 -30 -14 0 -41 -13 -60 -30 -19 -17 -54 -37 -79
-46 -24 -8 -55 -26 -68 -40 -12 -13 -40 -29 -60 -34 -21 -6 -56 -26 -79 -45
-25 -21 -53 -35 -69 -35 -17 0 -42 -13 -66 -34 -21 -19 -53 -37 -71 -41 -18
-3 -52 -21 -74 -40 -29 -24 -52 -35 -75 -35 -26 0 -38 -8 -59 -35 -19 -25 -35
-35 -54 -35 -27 0 -57 -17 -100 -55 -13 -11 -27 -21 -32 -21 -6 -1 -17 -2 -25
-3 -8 0 -32 -17 -54 -36 -27 -24 -48 -35 -70 -35 -23 0 -43 -11 -75 -40 -28
-26 -53 -40 -70 -40 -17 0 -40 -13 -63 -35 -20 -19 -46 -35 -57 -35 -12 0 -45
-18 -75 -40 -32 -24 -64 -40 -80 -40 -18 0 -38 -11 -57 -30 -51 -54 -57 -54
-113 -10 -30 24 -61 40 -77 40 -16 0 -37 12 -55 31 -16 17 -49 37 -74 44 -25
8 -66 30 -91 50 -26 19 -56 35 -67 35 -11 0 -37 16 -58 35 -26 23 -49 35 -69
35 -21 0 -36 8 -52 30 -15 21 -34 32 -60 36 -21 4 -61 24 -90 45 -28 22 -61
39 -72 39 -12 0 -39 16 -60 35 -24 21 -50 35 -66 35 -17 0 -40 13 -61 34 -21
20 -50 36 -74 40 -21 4 -57 22 -79 40 -23 18 -60 38 -82 44 -25 7 -49 23 -58
37 -12 18 -25 25 -50 25 -25 0 -47 11 -82 40 -27 23 -60 43 -74 47 -14 3 -45
21 -69 40 -24 18 -55 33 -68 33 -14 0 -38 15 -59 35 -24 24 -44 35 -65 35 -19
0 -47 13 -80 40 -27 21 -65 43 -82 48 -18 5 -46 21 -61 36 -17 15 -40 26 -58
26 -16 0 -35 9 -46 21 -22 27 -65 49 -95 49 -13 0 -39 11 -58 25 -86 62 -145
98 -193 116 -28 11 -64 33 -81 49 -26 24 -53 38 -145 74 -8 3 -22 10 -30 15
-8 6 -27 12 -41 15 -17 4 -31 16 -39 36 -14 35 -45 40 -55 10 -8 -25 -22 -26
-30 -1 -3 10 -30 42 -60 70 -41 39 -61 51 -85 51 -22 0 -45 11 -73 35 -22 19
-51 35 -64 35 -13 0 -34 11 -46 23 -27 29 -59 47 -85 47 -11 0 -39 16 -63 35
-24 19 -60 40 -79 46 -19 7 -49 24 -67 39 -17 16 -46 31 -65 35 -18 4 -50 23
-71 41 -23 22 -47 34 -65 34 -18 0 -43 13 -68 33 -21 19 -56 39 -76 46 -20 7
-42 19 -49 27 -18 22 -64 44 -90 44 -13 0 -36 15 -54 34 -21 23 -44 37 -71 42
-21 4 -53 19 -71 34 -17 16 -49 34 -70 40 -21 7 -53 26 -71 41 -18 16 -44 29
-59 29 -16 0 -42 15 -69 40 -29 27 -53 40 -71 40 -16 0 -43 12 -63 28 -43 36
-73 52 -96 52 -9 0 -34 16 -55 35 -22 19 -49 35 -60 35 -12 0 -39 16 -60 35
-26 23 -49 35 -68 35 -15 0 -41 10 -57 22 -63 49 -60 68 15 91 33 11 69 30 82
43 14 15 34 24 52 24 18 0 49 14 78 35 27 19 61 35 75 35 31 0 59 14 102 51
19 18 44 29 61 29 16 0 51 15 80 35 28 19 62 35 76 35 28 0 85 26 85 38 0 14
58 42 87 42 17 0 45 14 72 35 24 19 51 36 60 36 9 1 21 2 26 4 6 1 17 3 25 3
9 1 30 16 48 32 18 17 41 30 49 30 21 0 100 37 132 62 13 10 32 18 43 18 26 0
89 33 112 59 12 13 31 21 50 21 19 0 52 14 83 35 29 19 65 35 80 35 17 0 49
16 81 40 29 22 64 40 78 40 29 0 58 13 97 46 17 15 42 24 62 24 24 0 46 11 81
40 34 28 58 40 80 40 20 0 47 12 75 33 28 22 60 36 88 40 27 3 53 15 71 32 15
14 42 30 61 35 19 6 61 26 93 45 32 19 64 35 72 35 19 0 86 31 109 52 11 9 36
20 55 23 18 3 56 22 82 40 26 19 59 35 73 35 29 0 96 33 120 60 10 11 31 20
48 20 18 0 48 14 77 35 27 20 60 35 75 35 15 0 54 18 87 40 33 22 70 40 82 40
13 0 45 16 72 35 28 20 61 35 77 35 32 0 60 13 87 40 11 11 36 24 57 29 21 6
63 26 93 45 30 20 63 36 73 36 21 0 93 35 102 49 3 5 29 17 58 25 29 8 70 29
92 45 22 17 53 31 68 31 17 0 52 17 86 40 31 22 68 40 82 40 14 0 48 16 75 35
28 20 61 35 78 35 17 0 48 14 75 35 26 19 66 38 89 43 23 6 59 24 81 41 24 19
50 31 68 31 17 0 45 11 64 25 42 31 93 55 116 55 10 0 25 5 33 10 19 12 17 12
42 -1z m-2841 -3671 c10 -13 21 -39 25 -58 10 -60 15 -70 33 -70 10 0 26 9 36
20 23 25 42 26 50 0 8 -26 53 -60 79 -60 12 0 36 -16 55 -35 22 -24 42 -35 61
-35 21 0 33 -8 49 -35 14 -24 30 -37 51 -41 17 -4 41 -20 55 -35 13 -16 37
-32 52 -35 16 -4 36 -19 48 -37 11 -17 30 -37 43 -43 13 -6 30 -22 39 -34 9
-12 31 -29 50 -37 20 -8 46 -27 59 -43 14 -16 37 -31 52 -35 15 -3 34 -18 43
-34 10 -18 29 -32 47 -36 16 -3 44 -22 61 -40 17 -19 42 -37 55 -41 13 -3 33
-18 44 -34 11 -15 33 -30 47 -34 14 -4 40 -22 56 -41 16 -18 43 -37 59 -40 18
-4 37 -18 47 -35 10 -18 29 -32 47 -36 17 -3 44 -21 59 -40 16 -19 37 -34 48
-34 11 0 34 -15 52 -34 18 -19 49 -41 69 -51 21 -9 40 -25 43 -35 3 -10 23
-24 43 -31 20 -7 43 -21 50 -31 8 -10 32 -31 55 -45 23 -14 50 -37 60 -50 10
-13 29 -23 42 -23 15 0 33 -11 46 -29 12 -17 36 -35 53 -42 17 -7 44 -27 59
-46 16 -18 36 -33 46 -33 10 0 36 -18 59 -40 22 -22 47 -40 54 -40 8 0 28 -16
45 -35 17 -19 40 -35 51 -35 10 0 37 -18 60 -40 22 -22 47 -40 56 -40 8 0 24
-13 36 -30 12 -16 33 -33 48 -36 15 -4 43 -24 63 -45 20 -22 45 -39 56 -39 12
0 32 -15 47 -35 15 -20 36 -35 47 -35 12 0 34 -16 51 -35 17 -18 43 -37 57
-40 15 -3 35 -19 45 -35 9 -17 29 -33 44 -36 15 -4 42 -20 60 -36 18 -15 37
-28 42 -28 5 0 25 14 43 30 19 17 46 30 60 30 14 0 48 15 76 34 28 19 67 37
86 40 20 3 58 22 86 41 28 19 62 35 75 35 13 0 44 16 70 35 28 22 57 35 75 35
17 0 49 13 73 30 24 16 63 37 87 46 24 10 63 30 86 46 23 15 51 28 63 28 27 0
90 32 114 59 11 12 31 21 48 21 34 0 76 20 102 49 12 13 31 21 50 21 17 0 43
8 57 18 80 53 96 62 120 62 14 0 48 16 75 35 27 19 60 35 74 35 14 0 49 18 79
40 36 28 63 40 86 40 22 0 46 11 76 35 30 23 55 35 76 35 23 0 44 10 70 34 21
18 54 37 73 41 19 3 60 22 92 41 31 19 65 34 75 34 20 0 106 50 117 69 4 6 22
11 41 11 21 0 51 12 85 35 29 19 62 35 75 35 12 0 49 18 81 40 61 41 103 50
123 27 8 -10 11 -727 11 -2662 0 -2485 -1 -2649 -17 -2667 -16 -18 -34 -19
-356 -15 -319 3 -340 4 -353 22 -12 16 -14 225 -14 1294 0 791 -4 1291 -10
1316 -6 22 -14 68 -19 103 -9 56 -23 103 -66 207 -7 17 -18 46 -24 65 -6 19
-27 53 -46 75 -19 22 -35 46 -35 53 0 6 -4 12 -10 12 -5 0 -21 18 -35 40 -14
22 -33 40 -43 40 -10 0 -38 15 -62 33 -41 30 -50 32 -125 32 -102 0 -177 -33
-248 -109 -50 -53 -135 -193 -156 -258 -7 -21 -16 -40 -21 -43 -4 -2 -11 -26
-15 -52 -3 -27 -16 -77 -28 -113 l-22 -65 -3 -1312 c-3 -1176 -5 -1313 -19
-1324 -12 -10 -85 -14 -315 -15 -291 -1 -300 0 -314 20 -12 18 -14 200 -14
1281 0 1079 -2 1268 -15 1315 -8 30 -15 71 -15 91 0 37 -73 263 -92 287 -6 7
-23 36 -38 64 -37 70 -120 168 -142 168 -9 0 -33 14 -53 32 -32 27 -45 32
-110 36 -70 4 -79 2 -148 -31 -40 -21 -91 -56 -114 -80 -40 -42 -123 -162
-123 -178 0 -5 -13 -36 -29 -70 -17 -33 -33 -82 -37 -107 -4 -26 -14 -60 -23
-77 -8 -16 -20 -70 -24 -120 -5 -49 -11 -657 -13 -1350 -2 -1119 -5 -1261 -18
-1271 -11 -7 -104 -10 -308 -9 -161 1 -298 3 -304 4 -7 0 -15 9 -19 19 -3 9
-6 571 -6 1247 1 840 -2 1249 -10 1290 -5 33 -14 90 -18 126 -11 92 -33 158
-105 319 -13 30 -58 99 -105 160 -30 40 -55 58 -161 116 -37 20 -148 18 -190
-4 -78 -41 -115 -65 -128 -83 -7 -11 -26 -31 -42 -47 -35 -33 -147 -250 -155
-300 -3 -20 -13 -53 -22 -72 -9 -19 -20 -73 -24 -120 -5 -47 -13 -119 -18
-160 -6 -45 -10 -551 -10 -1269 -1 -1046 -3 -1197 -16 -1210 -12 -12 -65 -15
-332 -16 -175 0 -328 1 -340 3 -12 2 -26 16 -32 31 -14 32 -11 6206 3 6234 11
22 14 22 37 -5z"/>
</g>
</svg>
